<?xml version="1.0" encoding="utf-8"?>
<svg viewBox="8.395 95.612 483.431 295.387" xmlns="http://www.w3.org/2000/svg">
  <g transform="matrix(1.553835, 0, 0, 1.553835, -198.065353, -209.334076)" style="">
    <path d="M 144.651 329.524 L 144.651 139.422 L 195.035 139.422 L 195.035 161.781 L 171.664 161.781 L 171.664 307.165 L 195.035 307.165 L 195.035 329.524 L 144.651 329.524 Z" style="white-space: pre; paint-order: stroke; fill: rgb(56, 189, 248);" transform="matrix(1, 0, 0, 1, -11.779205949535488, 56.8320167958057)"/>
    <path d="M 207.511 188.399 L 207.511 173.008 L 291.938 173.008 L 291.938 185.463 C 283.634 194.301 275.405 206.044 267.25 220.693 C 259.095 235.343 252.793 250.407 248.345 265.887 C 245.142 276.801 243.096 288.752 242.207 301.74 L 225.748 301.74 C 225.926 291.48 227.942 279.084 231.798 264.553 C 235.653 250.022 241.184 236.01 248.39 222.517 C 255.596 209.024 263.261 197.651 271.387 188.399 L 207.511 188.399 Z M 307.861 267.311 L 323.874 265.175 C 325.712 274.25 328.841 280.789 333.26 284.792 C 337.678 288.796 343.061 290.797 349.407 290.797 C 356.939 290.797 363.3 288.188 368.49 282.968 C 373.68 277.75 376.275 271.285 376.275 263.574 C 376.275 256.22 373.872 250.155 369.068 245.381 C 364.264 240.607 358.155 238.219 350.742 238.219 C 347.716 238.219 343.95 238.812 339.443 239.998 L 341.222 225.942 C 342.29 226.061 343.15 226.12 343.802 226.12 C 350.622 226.12 356.761 224.341 362.218 220.782 C 367.674 217.224 370.403 211.737 370.403 204.323 C 370.403 198.452 368.416 193.589 364.442 189.733 C 360.468 185.879 355.338 183.951 349.051 183.951 C 342.823 183.951 337.634 185.908 333.482 189.822 C 329.33 193.737 326.662 199.609 325.476 207.437 L 309.462 204.59 C 311.419 193.856 315.867 185.538 322.807 179.636 C 329.746 173.735 338.375 170.784 348.695 170.784 C 355.812 170.784 362.366 172.311 368.357 175.365 C 374.347 178.42 378.928 182.587 382.102 187.865 C 385.274 193.144 386.861 198.749 386.861 204.679 C 386.861 210.314 385.348 215.444 382.324 220.07 C 379.299 224.697 374.821 228.374 368.89 231.102 C 376.6 232.882 382.591 236.574 386.861 242.178 C 391.131 247.783 393.267 254.796 393.267 263.218 C 393.267 274.606 389.115 284.258 380.812 292.176 C 372.508 300.094 362.01 304.053 349.318 304.053 C 337.871 304.053 328.367 300.643 320.805 293.822 C 313.243 287.002 308.928 278.165 307.861 267.311 Z" style="white-space: pre; paint-order: stroke; fill: rgb(56, 189, 248);" transform="matrix(1, 0, 0, 1, -11.779205949535488, 56.8320167958057)"/>
    <path d="M 455.772 139.422 L 455.772 329.524 L 405.389 329.524 L 405.389 307.165 L 428.759 307.165 L 428.759 161.579 L 405.389 161.579 L 405.389 139.422 L 455.772 139.422 Z" style="white-space: pre; paint-order: stroke; fill: rgb(56, 189, 248);" transform="matrix(1, 0, 0, 1, -11.779205949535488, 56.8320167958057)"/>
  </g>
</svg>