<svg xmlns="http://www.w3.org/2000/svg" width="23.844" height="16.415" viewBox="0 0 23.844 16.415">
  <g id="LogoIco" transform="translate(-1082.736 161.136)" opacity="0.5">
    <path id="Trazado_11" data-name="Trazado 11" d="M445.892,436.147v.257a.644.644,0,0,1-.644.644H441.5a2.744,2.744,0,0,1-1.216-.283,2.791,2.791,0,0,1-1.546-2.478v-5.265a.644.644,0,0,1,.644-.644h.257a.644.644,0,0,1,.644.644v5.42a1.235,1.235,0,0,0,1.061,1.061h3.905a.644.644,0,0,1,.644.644" transform="translate(644 -581.771)" fill="#fff"/>
    <path id="Trazado_12" data-name="Trazado 12" d="M445.892,416.766v-.257a.644.644,0,0,0-.644-.644H441.5a2.744,2.744,0,0,0-1.216.283,2.791,2.791,0,0,0-1.546,2.478v5.265a.644.644,0,0,0,.644.644h.257a.644.644,0,0,0,.644-.644v-5.42a1.235,1.235,0,0,1,1.061-1.061h3.905a.644.644,0,0,0,.644-.644" transform="translate(644 -577)" fill="#fff"/>
    <path id="Trazado_13" data-name="Trazado 13" d="M465.705,436.147v.257a.644.644,0,0,0,.644.644h3.75a2.744,2.744,0,0,0,1.216-.283,2.791,2.791,0,0,0,1.546-2.478v-5.265a.644.644,0,0,0-.644-.644h-.257a.644.644,0,0,0-.644.644v5.42a1.235,1.235,0,0,1-1.061,1.061h-3.905a.644.644,0,0,0-.644.644" transform="translate(633.719 -581.771)" fill="#fff"/>
    <path id="Trazado_14" data-name="Trazado 14" d="M465.705,416.766v-.257a.644.644,0,0,1,.644-.644h3.75a2.744,2.744,0,0,1,1.216.283,2.791,2.791,0,0,1,1.546,2.478v5.265a.644.644,0,0,1-.644.644h-.257a.644.644,0,0,1-.644-.644v-5.42a1.235,1.235,0,0,0-1.061-1.061h-3.905a.644.644,0,0,1-.644-.644" transform="translate(633.719 -577)" fill="#fff"/>
    <path id="Trazado_15" data-name="Trazado 15" d="M450.989,425.6l-4.472,4.939a.645.645,0,0,1-.478.212h-.657a.644.644,0,0,1-.481-1.072l4.442-4.992a1.235,1.235,0,0,0-1.061-1.061h-3.905a.644.644,0,0,1-.644-.644v-.257a.644.644,0,0,1,.644-.644h3.75a2.927,2.927,0,0,1,2.861,3.521" transform="translate(642.095 -579.369)" fill="#fff"/>
    <path id="Trazado_16" data-name="Trazado 16" d="M466.974,424.483a2.618,2.618,0,0,0-2.642-2.361h-5.3a.644.644,0,0,0-.644.644v.257a.644.644,0,0,0,.644.644h5.334a1.049,1.049,0,0,1,1.064.936,1.013,1.013,0,0,1-.961,1.083.149.149,0,0,0-.046,0h-5.39a.644.644,0,0,0-.644.644v.262a.644.644,0,0,0,.644.644h5.39a.147.147,0,0,0,.046-.005,1.012,1.012,0,0,1,.961,1.083,1.049,1.049,0,0,1-1.064.936h-5.334a.644.644,0,0,0-.644.644v.257a.644.644,0,0,0,.644.644h5.3a2.615,2.615,0,0,0,2.6-2.1,3.511,3.511,0,0,1,.033-4.21" transform="translate(636.507 -579.386)" fill="#fff"/>
  </g>
</svg>
