<?xml version="1.0" encoding="UTF-8"?>
<!DOCTYPE svg PUBLIC "-//W3C//DTD SVG 1.1//EN" "http://www.w3.org/Graphics/SVG/1.1/DTD/svg11.dtd">
<!-- Creator: CorelDRAW -->
<svg xmlns="http://www.w3.org/2000/svg" xml:space="preserve" width="1.70666in" height="1.70666in" version="1.1" style="shape-rendering:geometricPrecision; text-rendering:geometricPrecision; image-rendering:optimizeQuality; fill-rule:evenodd; clip-rule:evenodd" viewBox="0 0 1706.66 1706.66"
    xmlns:xlink="http://www.w3.org/1999/xlink"
    xmlns:xodm="http://www.corel.com/coreldraw/odm/2003">
    <defs>
        <style type="text/css">
            <![CDATA[
    .fil0 {fill:#D3D3D3}
   ]]>
        </style>
    </defs>
    <g id="Layer_x0020_1">
        <metadata id="CorelCorpID_0Corel-Layer"/>
        <path class="fil0" d="M1462.63 900.34l-919.56 0c-11.04,0 -20,-8.97 -20,-20l0 -606.97c0,-11.04 8.96,-20 20,-20l919.56 0c11.04,0 20,8.96 20,20l0 606.96c0.01,11.03 -8.96,20 -20,20zm-899.56 -40.01l879.56 0 0 -566.95 -879.56 0 0 566.95z"/>
        <path class="fil0" d="M1462.63 411.17l-919.56 0c-26.33,0 -26.33,-40 0,-40l919.56 0c26.33,0 26.33,40 0,40z"/>
        <path class="fil0" d="M1462.63 534.96l-919.56 0c-26.33,0 -26.33,-40 0,-40l919.56 0c26.33,0 26.33,40 0,40z"/>
        <path class="fil0" d="M1462.63 658.74l-919.56 0c-26.33,0 -26.33,-40 0,-40l919.56 0c26.33,0 26.33,40 0,40z"/>
        <path class="fil0" d="M1462.63 782.54l-919.56 0c-26.33,0 -26.33,-40 0,-40l919.56 0c26.33,0 26.33,40 0,40z"/>
        <path class="fil0" d="M677.23 900.34c-11.04,0 -20,-8.97 -20,-20l0 -606.97c0,-26.33 40,-26.33 40,0l0 606.96c0,11.03 -8.94,20 -20,20z"/>
        <path class="fil0" d="M807.48 900.34c-11.04,0 -20,-8.97 -20,-20l0 -606.97c0,-26.33 40,-26.33 40,0l0 606.96c0,11.03 -8.94,20 -20,20z"/>
        <path class="fil0" d="M937.72 900.34c-11.04,0 -20,-8.97 -20,-20l0 -606.97c0,-26.32 40,-26.32 40,0l0 606.96c0.02,11.03 -8.96,20 -20,20z"/>
        <path class="fil0" d="M1067.96 900.34c-11.04,0 -20,-8.97 -20,-20l0 -606.97c0,-26.32 40,-26.32 40,0l0 606.96c0.01,11.03 -8.96,20 -20,20z"/>
        <path class="fil0" d="M1198.2 900.34c-11.04,0 -20,-8.97 -20,-20l0 -606.97c0,-26.32 40,-26.32 40,0l0 606.96c0,11.03 -8.96,20 -20,20z"/>
        <path class="fil0" d="M1328.44 900.34c-11.04,0 -20,-8.97 -20,-20l0 -606.97c0,-26.32 40,-26.32 40,0l0 606.96c0,11.03 -8.96,20 -20,20z"/>
        <path class="fil0" d="M543.07 1486.98c-11.04,0 -20,-8.97 -20,-20l0 -1234 -57.39 0 0 1233.99c0,26.33 -40,26.32 -40,0l0 -1253.98c0,-11.04 8.96,-20 20,-20l97.39 0c11.04,0 20,8.96 20,20l0 1253.99c0,11.04 -8.96,20 -20,20z"/>
        <path class="fil0" d="M744.69 1706.64l-500.66 0c-11.04,0 -20,-8.97 -20,-20l0 -219.67c0,-11.04 8.96,-20 20,-20l500.66 0c11.04,0 20,8.97 20,20l0 219.67c0,11.04 -8.94,20 -20,20zm-480.66 -40l460.66 0 0 -179.67 -460.66 0 0 179.66z"/>
        <path class="fil0" d="M494.37 232.98c-28.26,0 -20,-43.02 -20,-83.69 0,-26.33 40,-26.33 40,0 0,40.74 8.26,83.69 -20,83.69z"/>
        <path class="fil0" d="M499.74 169.5c-111.54,0 -111.54,-169.48 0,-169.48 111.55,0 111.54,169.48 0,169.48zm0 -129.48c-58.88,0 -58.91,89.48 0,89.48 58.91,0 58.88,-89.48 0,-89.48z"/>
        <path class="fil0" d="M744.69 1596.81l-250.32 0c-26.33,0 -26.33,-40 0,-40l250.32 0c26.32,0 26.34,40 0,40z"/>
    </g>
</svg>
