<?xml version="1.0" encoding="UTF-8" standalone="no"?>
<svg id="Layer_1" data-name="Layer 1"
    xmlns="http://www.w3.org/2000/svg" viewBox="0 0 64 64">
    <title>rugby ball</title>
    <path d="M34.83,39.83a5,5,0,0,1-3.54-1.47h0l-5.65-5.65a5,5,0,0,1,7.07-7.07l5.65,5.65a5,5,0,0,1,0,7.07A5,5,0,0,1,34.83,39.83Z"/>
    <path d="M32.71,37A3,3,0,0,0,37,32.71l-5.66-5.66a3,3,0,0,0-4.24,4.24Z"/>
    <path d="M40.94,54.82a31.32,31.32,0,0,1-22.16-9.17l-.43-.43a31.33,31.33,0,0,1-7.08-33.38,1,1,0,0,1,.57-.57,31.33,31.33,0,0,1,33.38,7.08l.43.43a31.33,31.33,0,0,1,7.08,33.38,1,1,0,0,1-.57.57A31.31,31.31,0,0,1,40.94,54.82ZM13,13a29.33,29.33,0,0,0,6.79,30.83l.42.43A29.35,29.35,0,0,0,51,51a29.33,29.33,0,0,0-6.79-30.83l-.42-.43A29.35,29.35,0,0,0,13,13ZM51.8,51.8h0Z"/>
    <path d="M51.8,52.8a1,1,0,0,1-.71-.29l-39.6-39.6a1,1,0,1,1,1.42-1.42l39.6,39.6a1,1,0,0,1,0,1.42A1,1,0,0,1,51.8,52.8Z"/>
    <path d="M27.05,38a1,1,0,0,1-.71-.29,1,1,0,0,1,0-1.42l9.9-9.9a1,1,0,1,1,1.42,1.42l-9.9,9.9A1,1,0,0,1,27.05,38Z"/>
    <path d="M24.22,35.12a1,1,0,0,1-.71-.29,1,1,0,0,1,0-1.42l9.9-9.9a1,1,0,1,1,1.42,1.42l-9.9,9.9A1,1,0,0,1,24.22,35.12Z"/>
    <path d="M29.88,40.78a1,1,0,0,1-.71-.29,1,1,0,0,1,0-1.42l9.9-9.9a1,1,0,0,1,1.42,1.42l-9.9,9.9A1,1,0,0,1,29.88,40.78Z"/>
    <path d="M51.8,52.8a1,1,0,0,1-1-1A38.65,38.65,0,0,0,12.2,13.2a1,1,0,0,1,0-2A40.64,40.64,0,0,1,52.8,51.8,1,1,0,0,1,51.8,52.8Z"/>
    <path d="M51.8,52.8A40.64,40.64,0,0,1,11.2,12.2a1,1,0,0,1,2,0A38.65,38.65,0,0,0,51.8,50.8a1,1,0,0,1,0,2Z"/>
</svg>